<svg width="48" height="48" viewBox="0 0 48 48" fill="none" xmlns="http://www.w3.org/2000/svg">
<path fill-rule="evenodd" clip-rule="evenodd" d="M0 24C0 15.0277 0 10.5415 1.92923 7.2C3.1931 5.01092 5.01092 3.1931 7.2 1.92923C10.5415 0 15.0277 0 24 0C32.9723 0 37.4585 0 40.8 1.92923C42.9891 3.1931 44.8069 5.01092 46.0708 7.2C48 10.5415 48 15.0277 48 24C48 32.9723 48 37.4585 46.0708 40.8C44.8069 42.9891 42.9891 44.8069 40.8 46.0708C37.4585 48 32.9723 48 24 48C15.0277 48 10.5415 48 7.2 46.0708C5.01092 44.8069 3.1931 42.9891 1.92923 40.8C0 37.4585 0 32.9723 0 24ZM24 8.4C15.3731 8.4 8.4 15.3731 8.4 24C8.4 32.6269 15.3731 39.6 24 39.6C24.2438 39.6 24.4862 39.5944 24.7272 39.5834C24.7831 39.5943 24.8409 39.6 24.9 39.6H38.7C39.1971 39.6 39.6 39.1971 39.6 38.7V38.4C39.6 37.9029 39.1971 37.5 38.7 37.5H31.8317C36.4799 34.8014 39.6 29.7707 39.6 24C39.6 15.3731 32.6269 8.4 24 8.4ZM24 10.7016C24.9954 10.7016 25.9908 10.8832 26.9862 11.2465C27.68 11.4996 28.1088 12.1973 27.9466 12.9179C27.3647 15.5042 25.1757 18.5443 24 18.5443C22.8243 18.5443 20.6353 15.5042 20.0534 12.9179C19.8912 12.1973 20.32 11.4996 21.0138 11.2465C22.0092 10.8832 23.0046 10.7016 24 10.7016ZM14.4568 15.036C15.023 14.5608 15.8425 14.5381 16.3858 15.0393C18.3341 16.8364 19.8748 20.2509 19.2944 21.2721C18.6993 22.2861 14.9753 22.6604 12.4447 21.871C11.7395 21.651 11.3495 20.9305 11.4772 20.2029C11.8431 18.1178 12.8367 16.3955 14.4568 15.036ZM31.6157 15.0379C32.1584 14.5376 32.9765 14.5597 33.5427 15.0331C35.1702 16.3935 36.166 18.1174 36.5303 20.2049C36.6571 20.9315 36.2675 21.6507 35.5634 21.8705C33.0327 22.6606 29.302 22.2863 28.7141 21.2721C28.1262 20.2507 29.6668 16.8347 31.6157 15.0379ZM24 20.5049C25.918 20.5049 27.4951 22.082 27.4951 24C27.4951 25.918 25.918 27.4951 24 27.4951C22.082 27.4951 20.5049 25.918 20.5049 24C20.5049 22.082 22.082 20.5049 24 20.5049ZM24 22.0393C22.9089 22.0393 22.0393 22.9089 22.0393 24C22.0393 25.0911 22.9089 25.9607 24 25.9607C25.0911 25.9607 25.9607 25.0911 25.9607 24C25.9607 22.9089 25.0911 22.0393 24 22.0393ZM15.6374 25.6879C17.3679 25.7049 18.9279 26.0885 19.2944 26.7108C19.8749 27.7321 18.3339 31.147 16.3853 32.9441C15.8422 33.445 15.0232 33.4225 14.457 32.9479C12.8343 31.5879 11.8395 29.8649 11.4736 27.7788C11.3461 27.0518 11.7358 26.3317 12.4402 26.1114C13.4106 25.8081 14.5579 25.6758 15.6374 25.6879ZM32.3626 25.6879C33.4454 25.6758 34.5919 25.8081 35.5624 26.1117C36.2667 26.332 36.6571 27.0518 36.5302 27.7788C36.1658 29.8659 35.17 31.5896 33.5427 32.9499C32.9765 33.4233 32.1584 33.4454 31.6157 32.9451C29.6668 31.1483 28.1262 27.7323 28.7141 26.7108C29.0807 26.0885 30.6321 25.7049 32.3626 25.6879ZM24 29.4302C25.1757 29.4375 27.3647 32.4786 27.9466 35.0651C28.1088 35.7856 27.6798 36.4834 26.9859 36.7366C24.9953 37.4629 23.0047 37.4629 21.0141 36.7366C20.3202 36.4834 19.8912 35.7856 20.0534 35.0651C20.6353 32.4786 22.8243 29.4375 24 29.4302Z" fill="#2CD4BF"/>
</svg>
