<svg width="145" height="48" viewBox="0 0 145 48" fill="none" xmlns="http://www.w3.org/2000/svg">
<path fill-rule="evenodd" clip-rule="evenodd" d="M0 24C0 15.0277 0 10.5415 1.92923 7.2C3.1931 5.01092 5.01092 3.1931 7.2 1.92923C10.5415 0 15.0277 0 24 0C32.9723 0 37.4585 0 40.8 1.92923C42.9891 3.1931 44.8069 5.01092 46.0708 7.2C48 10.5415 48 15.0277 48 24C48 32.9723 48 37.4585 46.0708 40.8C44.8069 42.9891 42.9891 44.8069 40.8 46.0708C37.4585 48 32.9723 48 24 48C15.0277 48 10.5415 48 7.2 46.0708C5.01092 44.8069 3.1931 42.9891 1.92923 40.8C0 37.4585 0 32.9723 0 24ZM24 8.40001C15.3731 8.40001 8.39995 15.3731 8.39995 24C8.39995 32.6269 15.3731 39.6 24 39.6C24.2437 39.6 24.4861 39.5944 24.7271 39.5834C24.7831 39.5943 24.8408 39.6 24.9 39.6H38.7C39.197 39.6 39.6 39.1971 39.6 38.7V38.4C39.6 37.903 39.197 37.5 38.7 37.5H31.8316C36.4798 34.8014 39.6 29.7707 39.6 24C39.6 15.3731 32.6268 8.40001 24 8.40001ZM24 10.7017C24.9953 10.7017 25.9907 10.8833 26.9861 11.2465C27.68 11.4997 28.1087 12.1973 27.9466 12.9179C27.3646 15.5042 25.1756 18.5443 24 18.5443C22.8243 18.5443 20.6353 15.5042 20.0533 12.9179C19.8912 12.1973 20.3199 11.4997 21.0138 11.2465C22.0092 10.8833 23.0046 10.7017 24 10.7017ZM14.4568 15.036C15.023 14.5608 15.8424 14.5381 16.3857 15.0393C18.3341 16.8365 19.8748 20.251 19.2944 21.2721C18.6992 22.2861 14.9753 22.6605 12.4447 21.871C11.7394 21.651 11.3495 20.9305 11.4771 20.2029C11.843 18.1178 12.8367 16.3955 14.4568 15.036ZM31.6157 15.0379C32.1583 14.5376 32.9764 14.5597 33.5427 15.0331C35.1701 16.3935 36.166 18.1175 36.5302 20.2049C36.657 20.9315 36.2674 21.6507 35.5633 21.8705C33.0327 22.6606 29.302 22.2864 28.714 21.2721C28.1262 20.2507 29.6668 16.8347 31.6157 15.0379ZM24 20.5049C25.918 20.5049 27.495 22.082 27.495 24C27.495 25.918 25.918 27.4951 24 27.4951C22.0819 27.4951 20.5049 25.918 20.5049 24C20.5049 22.082 22.0819 20.5049 24 20.5049ZM24 22.0394C22.9088 22.0394 22.0393 22.9089 22.0393 24C22.0393 25.0912 22.9088 25.9607 24 25.9607C25.0911 25.9607 25.9606 25.0912 25.9606 24C25.9606 22.9089 25.0911 22.0394 24 22.0394ZM15.6373 25.6879C17.3678 25.7049 18.9278 26.0885 19.2944 26.7108C19.8748 27.7321 18.3339 31.1471 16.3853 32.9441C15.8422 33.445 15.0232 33.4225 14.4569 32.9479C12.8343 31.5879 11.8395 29.8649 11.4735 27.7788C11.346 27.0518 11.7357 26.3317 12.4402 26.1114C13.4106 25.8081 14.5579 25.6759 15.6373 25.6879ZM32.3626 25.6879C33.4454 25.6759 34.5918 25.8081 35.5623 26.1117C36.2667 26.332 36.657 27.0518 36.5301 27.7788C36.1658 29.8659 35.17 31.5896 33.5427 32.9499C32.9764 33.4233 32.1583 33.4454 31.6157 32.9451C29.6668 31.1483 28.1262 27.7323 28.714 26.7108C29.0806 26.0885 30.6321 25.7049 32.3626 25.6879ZM24 29.4302C25.1756 29.4375 27.3646 32.4786 27.9466 35.0651C28.1087 35.7857 27.6797 36.4834 26.9859 36.7366C24.9953 37.4629 23.0046 37.4629 21.014 36.7366C20.3202 36.4834 19.8912 35.7857 20.0533 35.0651C20.6353 32.4786 22.8243 29.4375 24 29.4302Z" fill="#2CD4BF"/>
<path d="M55.608 39C55.464 39 55.3344 38.9568 55.2192 38.8704C55.1328 38.7552 55.0896 38.6256 55.0896 38.4816V9.2784C55.0896 9.1344 55.1328 9.0192 55.2192 8.9328C55.3344 8.8176 55.464 8.76 55.608 8.76H60.6624C60.8064 8.76 60.9216 8.8176 61.008 8.9328C61.1232 9.0192 61.1808 9.1344 61.1808 9.2784V33.5568C61.1808 33.7008 61.2528 33.7728 61.3968 33.7728H72.9744C73.1185 33.7728 73.2337 33.8304 73.3201 33.9456C73.4353 34.032 73.4929 34.1472 73.4929 34.2912V38.4816C73.4929 38.6256 73.4353 38.7552 73.3201 38.8704C73.2337 38.9568 73.1185 39 72.9744 39H55.608ZM85.8983 39.3888C83.9111 39.3888 82.1543 38.9856 80.6279 38.1792C79.1303 37.3728 77.9639 36.2352 77.1287 34.7664C76.2935 33.2976 75.8759 31.584 75.8759 29.6256V18.1344C75.8759 16.2048 76.2935 14.5056 77.1287 13.0368C77.9639 11.568 79.1303 10.4304 80.6279 9.624C82.1543 8.8176 83.9111 8.4144 85.8983 8.4144C87.8855 8.4144 89.6423 8.8176 91.1687 9.624C92.6951 10.4304 93.8759 11.568 94.7111 13.0368C95.5463 14.5056 95.9639 16.2048 95.9639 18.1344V29.6256C95.9639 31.584 95.5463 33.2976 94.7111 34.7664C93.8759 36.2352 92.6951 37.3728 91.1687 38.1792C89.6423 38.9856 87.8855 39.3888 85.8983 39.3888ZM85.8983 34.1616C87.1079 34.1616 88.0727 33.7728 88.7927 32.9952C89.5127 32.1888 89.8727 31.152 89.8727 29.8848V17.9616C89.8727 16.6656 89.5127 15.6288 88.7927 14.8512C88.0727 14.0448 87.1079 13.6416 85.8983 13.6416C84.7175 13.6416 83.7671 14.0448 83.0471 14.8512C82.3271 15.6288 81.9671 16.6656 81.9671 17.9616V29.8848C81.9671 31.152 82.3271 32.1888 83.0471 32.9952C83.7671 33.7728 84.7175 34.1616 85.8983 34.1616ZM109.523 39.3888C107.536 39.3888 105.779 38.9856 104.253 38.1792C102.755 37.3728 101.589 36.2352 100.754 34.7664C99.9185 33.2976 99.5009 31.584 99.5009 29.6256V18.1344C99.5009 16.2048 99.9185 14.5056 100.754 13.0368C101.589 11.568 102.755 10.4304 104.253 9.624C105.779 8.8176 107.536 8.4144 109.523 8.4144C111.511 8.4144 113.267 8.8176 114.794 9.624C116.32 10.4304 117.501 11.568 118.336 13.0368C119.171 14.5056 119.589 16.2048 119.589 18.1344V29.6256C119.589 31.584 119.171 33.2976 118.336 34.7664C117.501 36.2352 116.32 37.3728 114.794 38.1792C113.267 38.9856 111.511 39.3888 109.523 39.3888ZM109.523 34.1616C110.733 34.1616 111.698 33.7728 112.418 32.9952C113.138 32.1888 113.498 31.152 113.498 29.8848V17.9616C113.498 16.6656 113.138 15.6288 112.418 14.8512C111.698 14.0448 110.733 13.6416 109.523 13.6416C108.343 13.6416 107.392 14.0448 106.672 14.8512C105.952 15.6288 105.592 16.6656 105.592 17.9616V29.8848C105.592 31.152 105.952 32.1888 106.672 32.9952C107.392 33.7728 108.343 34.1616 109.523 34.1616ZM134.488 8.7168C136.216 8.7168 137.742 9.1056 139.067 9.8832C140.42 10.6608 141.457 11.7552 142.177 13.1664C142.926 14.5776 143.3 16.1904 143.3 18.0048C143.3 19.7904 142.926 21.3744 142.177 22.7568C141.457 24.1104 140.42 25.1616 139.067 25.9104C137.742 26.6592 136.216 27.0336 134.488 27.0336H129.822C129.678 27.0336 129.606 27.1056 129.606 27.2496V38.4816C129.606 38.6256 129.548 38.7552 129.433 38.8704C129.347 38.9568 129.232 39 129.088 39H124.033C123.889 39 123.76 38.9568 123.644 38.8704C123.558 38.7552 123.515 38.6256 123.515 38.4816V9.2352C123.515 9.0912 123.558 8.976 123.644 8.8896C123.76 8.7744 123.889 8.7168 124.033 8.7168H134.488ZM133.494 22.1952C134.617 22.1952 135.51 21.8352 136.172 21.1152C136.864 20.3664 137.209 19.3728 137.209 18.1344C137.209 16.8672 136.864 15.8592 136.172 15.1104C135.51 14.3616 134.617 13.9872 133.494 13.9872H129.822C129.678 13.9872 129.606 14.0592 129.606 14.2032V21.9792C129.606 22.1232 129.678 22.1952 129.822 22.1952H133.494Z" fill="#2CD4BF"/>
</svg>
